<svg width="66" height="49" viewBox="0 0 66 49" fill="none" xmlns="http://www.w3.org/2000/svg">
<g filter="url(#filter0_dd_20_326)">
<rect x="9.8429" y="5" width="46.6143" height="30.0304" rx="5.37857" fill="white"/>
<path d="M24.9199 16.0817C25.2309 15.6927 25.4419 15.1704 25.3863 14.6367C24.931 14.6594 24.3755 14.9371 24.0538 15.3264C23.7651 15.6597 23.5095 16.2039 23.5761 16.7152C24.0871 16.7595 24.5977 16.4598 24.9199 16.0817Z" fill="#000008"/>
<path d="M25.3805 16.8151C24.6383 16.7709 24.0073 17.2363 23.6529 17.2363C23.2983 17.2363 22.7556 16.8373 22.1686 16.8481C21.4045 16.8593 20.6956 17.2913 20.3079 17.9784C19.5105 19.3528 20.0975 21.3916 20.8729 22.511C21.2495 23.0648 21.7034 23.6746 22.3014 23.6527C22.8664 23.6305 23.0879 23.2868 23.7747 23.2868C24.461 23.2868 24.6605 23.6527 25.2587 23.6416C25.8789 23.6305 26.2667 23.0875 26.6433 22.5332C27.0753 21.9019 27.2522 21.2923 27.2633 21.2588C27.2522 21.2477 26.0672 20.7932 26.0562 19.4302C26.0451 18.2889 26.9865 17.746 27.0309 17.7123C26.4992 16.926 25.6685 16.8373 25.3805 16.8151Z" fill="#000008"/>
<path d="M31.8425 15.2705C33.4556 15.2705 34.5788 16.3824 34.5788 18.0013C34.5788 19.6259 33.4325 20.7435 31.8021 20.7435H30.0161V23.5837H28.7258V15.2705L31.8425 15.2705ZM30.0161 19.6604H31.4967C32.6202 19.6604 33.2596 19.0556 33.2596 18.007C33.2596 16.9586 32.6202 16.3594 31.5025 16.3594H30.0161V19.6604Z" fill="#000008"/>
<path d="M34.9159 21.8612C34.9159 20.8011 35.7283 20.1501 37.1686 20.0695L38.8277 19.9716V19.505C38.8277 18.8309 38.3725 18.4276 37.6122 18.4276C36.8919 18.4276 36.4426 18.7732 36.3332 19.3148H35.158C35.2271 18.2201 36.1603 17.4136 37.6582 17.4136C39.1273 17.4136 40.0663 18.1914 40.0663 19.4069V23.5837H38.8737V22.5871H38.845C38.4937 23.2611 37.7274 23.6874 36.9324 23.6874C35.7456 23.6874 34.9159 22.95 34.9159 21.8612ZM38.8277 21.3139V20.8358L37.3355 20.9279C36.5923 20.9798 36.1719 21.3081 36.1719 21.8266C36.1719 22.3566 36.6097 22.7023 37.278 22.7023C38.1478 22.7023 38.8277 22.1031 38.8277 21.3139Z" fill="#000008"/>
<path d="M41.1922 25.8133V24.8051C41.2842 24.8281 41.4915 24.8281 41.5953 24.8281C42.1714 24.8281 42.4825 24.5861 42.6725 23.964C42.6725 23.9524 42.7821 23.5953 42.7821 23.5895L40.593 17.5231H41.9409L43.4735 22.4546H43.4964L45.029 17.5231H46.3425L44.0724 23.9005C43.5542 25.3697 42.955 25.8421 41.6991 25.8421C41.5953 25.8421 41.2842 25.8305 41.1922 25.8133Z" fill="#000008"/>
<rect x="9.73084" y="4.88795" width="46.8384" height="30.2545" rx="5.49062" stroke="#D6DCE5" stroke-width="0.224107"/>
</g>
<defs>
<filter id="filter0_dd_20_326" x="0.654489" y="0.293736" width="64.9911" height="48.4071" filterUnits="userSpaceOnUse" color-interpolation-filters="sRGB">
<feFlood flood-opacity="0" result="BackgroundImageFix"/>
<feColorMatrix in="SourceAlpha" type="matrix" values="0 0 0 0 0 0 0 0 0 0 0 0 0 0 0 0 0 0 127 0" result="hardAlpha"/>
<feOffset dy="0.448214"/>
<feGaussianBlur stdDeviation="2.24107"/>
<feColorMatrix type="matrix" values="0 0 0 0 0.717647 0 0 0 0 0.717647 0 0 0 0 0.717647 0 0 0 0.08 0"/>
<feBlend mode="normal" in2="BackgroundImageFix" result="effect1_dropShadow_20_326"/>
<feColorMatrix in="SourceAlpha" type="matrix" values="0 0 0 0 0 0 0 0 0 0 0 0 0 0 0 0 0 0 127 0" result="hardAlpha"/>
<feOffset dy="4.48214"/>
<feGaussianBlur stdDeviation="4.48214"/>
<feColorMatrix type="matrix" values="0 0 0 0 0.717647 0 0 0 0 0.717647 0 0 0 0 0.717647 0 0 0 0.08 0"/>
<feBlend mode="normal" in2="effect1_dropShadow_20_326" result="effect2_dropShadow_20_326"/>
<feBlend mode="normal" in="SourceGraphic" in2="effect2_dropShadow_20_326" result="shape"/>
</filter>
</defs>
</svg>
