<svg width="28" height="28" viewBox="0 0 28 28" fill="none" xmlns="http://www.w3.org/2000/svg">
<circle cx="14" cy="14" r="14" fill="white"/>
<circle cx="14" cy="14" r="13.5" stroke="black" stroke-opacity="0.2"/>
<path fill-rule="evenodd" clip-rule="evenodd" d="M14.6068 7.22656C11.0159 7.22656 8.12695 10.1155 8.12695 13.7065C8.12695 16.5684 9.98992 18.9984 12.5549 19.8624C12.8789 19.9164 12.9869 19.7274 12.9869 19.5384C12.9869 19.3764 12.9869 18.9714 12.9869 18.4314C11.1779 18.8364 10.7999 17.5674 10.7999 17.5674C10.5029 16.8114 10.0709 16.6224 10.0709 16.6224C9.47693 16.2174 10.1249 16.2174 10.1249 16.2174C10.7729 16.2714 11.1239 16.8924 11.1239 16.8924C11.6909 17.8914 12.6359 17.5944 13.0139 17.4324C13.0679 17.0004 13.2299 16.7304 13.4189 16.5684C11.9879 16.4064 10.4759 15.8394 10.4759 13.3555C10.4759 12.6535 10.7189 12.0595 11.1509 11.6275C11.0969 11.4655 10.8539 10.8175 11.2049 9.89952C11.2049 9.89952 11.7449 9.73752 12.9869 10.5745C13.4999 10.4395 14.0669 10.3585 14.6068 10.3585C15.1468 10.3585 15.7138 10.4395 16.2268 10.5745C17.4688 9.73752 18.0088 9.89952 18.0088 9.89952C18.3598 10.7905 18.1438 11.4385 18.0628 11.6275C18.4678 12.0865 18.7378 12.6535 18.7378 13.3555C18.7378 15.8394 17.2258 16.3794 15.7678 16.5414C16.0108 16.7304 16.1998 17.1354 16.1998 17.7294C16.1998 18.5934 16.1998 19.2954 16.1998 19.5114C16.1998 19.6734 16.3078 19.8894 16.6588 19.8354C19.2238 18.9984 21.0867 16.5684 21.0867 13.7065C21.0867 10.1155 18.1978 7.22656 14.6068 7.22656Z" fill="black"/>
</svg>
