<svg width="66" height="49" viewBox="0 0 66 49" fill="none" xmlns="http://www.w3.org/2000/svg">
<g filter="url(#filter0_dd_20_328)">
<rect x="9.45715" y="5" width="46.6143" height="30.0304" rx="5.37857" fill="white"/>
<path d="M31.751 23.6143H30.7025V15.4561H33.482C34.1864 15.4561 34.7871 15.6909 35.2785 16.1605C35.7809 16.6301 36.0321 17.2035 36.0321 17.8806C36.0321 18.5741 35.7809 19.1475 35.2785 19.6116C34.7925 20.0758 34.1919 20.3051 33.482 20.3051H31.751V23.6143ZM31.751 16.4608V19.3058H33.5038C33.9188 19.3058 34.2683 19.1639 34.5414 18.8854C34.8198 18.6069 34.9618 18.2683 34.9618 17.8861C34.9618 17.5093 34.8198 17.1762 34.5414 16.8977C34.2683 16.6083 33.9243 16.4663 33.5038 16.4663H31.751V16.4608Z" fill="#3C4043"/>
<path d="M38.7732 17.8478C39.5487 17.8478 40.1603 18.0553 40.608 18.4703C41.0558 18.8854 41.2797 19.4533 41.2797 20.1741V23.6143H40.2804V22.8389H40.2367C39.8053 23.4778 39.2265 23.7945 38.5057 23.7945C37.8886 23.7945 37.3753 23.6143 36.9603 23.2484C36.5453 22.8826 36.3378 22.4293 36.3378 21.8833C36.3378 21.3044 36.5562 20.8457 36.9931 20.5072C37.4299 20.1632 38.0142 19.9939 38.7405 19.9939C39.363 19.9939 39.8763 20.1085 40.2749 20.3379V20.0976C40.2749 19.7318 40.1329 19.426 39.8435 19.1693C39.5541 18.9127 39.2156 18.7871 38.8279 18.7871C38.2436 18.7871 37.7794 19.0328 37.4408 19.5297L36.518 18.9509C37.0258 18.2137 37.7794 17.8478 38.7732 17.8478ZM37.419 21.8996C37.419 22.1727 37.5337 22.402 37.7685 22.5822C37.9978 22.7624 38.2709 22.8553 38.5821 22.8553C39.0244 22.8553 39.4176 22.6914 39.7616 22.3638C40.1056 22.0362 40.2804 21.6539 40.2804 21.2116C39.9527 20.955 39.4995 20.8239 38.9152 20.8239C38.4893 20.8239 38.1343 20.9276 37.8504 21.1297C37.561 21.3427 37.419 21.5993 37.419 21.8996Z" fill="#3C4043"/>
<path d="M46.9807 18.0281L43.4858 26.0662H42.4046L43.7043 23.2539L41.3999 18.0281H42.5412L44.2012 22.0362H44.223L45.8394 18.0281H46.9807Z" fill="#3C4043"/>
<path d="M27.5806 19.6444C27.5806 19.3026 27.55 18.9755 27.4932 18.6609H23.0985V20.4629L25.6295 20.4635C25.5268 21.0631 25.1965 21.5742 24.6903 21.9149V23.0841H26.1969C27.0766 22.2699 27.5806 21.0664 27.5806 19.6444Z" fill="#4285F4"/>
<path d="M24.6908 21.915C24.2714 22.1979 23.7314 22.3633 23.0996 22.3633C21.8791 22.3633 20.8438 21.5409 20.473 20.4324H18.9189V21.6381C19.6888 23.166 21.2713 24.2145 23.0996 24.2145C24.3632 24.2145 25.4247 23.7989 26.1974 23.0836L24.6908 21.915Z" fill="#34A853"/>
<path d="M20.3266 19.5379C20.3266 19.2266 20.3785 18.9258 20.473 18.6429V17.4372H18.9189C18.6005 18.069 18.4214 18.7821 18.4214 19.5379C18.4214 20.2937 18.601 21.0068 18.9189 21.6386L20.473 20.4329C20.3785 20.15 20.3266 19.8492 20.3266 19.5379Z" fill="#FABB05"/>
<path d="M23.0996 16.712C23.7892 16.712 24.4068 16.9495 24.8945 17.4137L26.2296 16.0797C25.4187 15.3245 24.3615 14.8608 23.0996 14.8608C21.2719 14.8608 19.6888 15.9093 18.9189 17.4372L20.473 18.6429C20.8437 17.5344 21.8791 16.712 23.0996 16.712Z" fill="#E94235"/>
<rect x="9.3451" y="4.88795" width="46.8384" height="30.2545" rx="5.49062" stroke="#D6DCE5" stroke-width="0.224107"/>
</g>
<defs>
<filter id="filter0_dd_20_328" x="0.268746" y="0.293736" width="64.9911" height="48.4071" filterUnits="userSpaceOnUse" color-interpolation-filters="sRGB">
<feFlood flood-opacity="0" result="BackgroundImageFix"/>
<feColorMatrix in="SourceAlpha" type="matrix" values="0 0 0 0 0 0 0 0 0 0 0 0 0 0 0 0 0 0 127 0" result="hardAlpha"/>
<feOffset dy="0.448214"/>
<feGaussianBlur stdDeviation="2.24107"/>
<feColorMatrix type="matrix" values="0 0 0 0 0.717647 0 0 0 0 0.717647 0 0 0 0 0.717647 0 0 0 0.08 0"/>
<feBlend mode="normal" in2="BackgroundImageFix" result="effect1_dropShadow_20_328"/>
<feColorMatrix in="SourceAlpha" type="matrix" values="0 0 0 0 0 0 0 0 0 0 0 0 0 0 0 0 0 0 127 0" result="hardAlpha"/>
<feOffset dy="4.48214"/>
<feGaussianBlur stdDeviation="4.48214"/>
<feColorMatrix type="matrix" values="0 0 0 0 0.717647 0 0 0 0 0.717647 0 0 0 0 0.717647 0 0 0 0.08 0"/>
<feBlend mode="normal" in2="effect1_dropShadow_20_328" result="effect2_dropShadow_20_328"/>
<feBlend mode="normal" in="SourceGraphic" in2="effect2_dropShadow_20_328" result="shape"/>
</filter>
</defs>
</svg>
