<svg width="66" height="49" viewBox="0 0 66 49" fill="none" xmlns="http://www.w3.org/2000/svg">
<g filter="url(#filter0_dd_20_322)">
<rect x="9.61426" y="5" width="46.6143" height="30.0304" rx="5.37857" fill="white"/>
<path d="M36.2699 13.8484H29.4066V26.1819H36.2699V13.8484Z" fill="#FF5F00"/>
<path d="M29.8425 20.0151C29.8414 18.8273 30.1105 17.6548 30.6296 16.5864C31.1486 15.518 31.9039 14.5817 32.8383 13.8484C31.6812 12.9389 30.2915 12.3732 28.8282 12.2162C27.3648 12.0591 25.8867 12.3169 24.563 12.9602C23.2392 13.6034 22.1231 14.6061 21.3423 15.8537C20.5614 17.1013 20.1473 18.5434 20.1473 20.0151C20.1473 21.4869 20.5614 22.929 21.3423 24.1766C22.1231 25.4241 23.2392 26.4269 24.563 27.0701C25.8867 27.7133 27.3648 27.9712 28.8282 27.8141C30.2915 27.657 31.6812 27.0914 32.8383 26.1819C31.9039 25.4485 31.1486 24.5122 30.6296 23.4438C30.1105 22.3754 29.8414 21.2029 29.8425 20.0151Z" fill="#EB001B"/>
<path d="M45.5289 20.0151C45.5289 21.4869 45.1149 22.929 44.3341 24.1765C43.5533 25.4241 42.4372 26.4268 41.1135 27.0701C39.7897 27.7133 38.3117 27.9712 36.8484 27.8141C35.385 27.657 33.9954 27.0914 32.8383 26.1819C33.7719 25.4478 34.5266 24.5113 35.0455 23.4431C35.5645 22.3749 35.8341 21.2028 35.8341 20.0151C35.8341 18.8275 35.5645 17.6554 35.0455 16.5872C34.5266 15.5189 33.7719 14.5825 32.8383 13.8484C33.9954 12.9389 35.385 12.3732 36.8484 12.2162C38.3117 12.0591 39.7897 12.3169 41.1135 12.9602C42.4372 13.6034 43.5533 14.6062 44.3341 15.8537C45.1149 17.1013 45.5289 18.5434 45.5289 20.0151Z" fill="#F79E1B"/>
<path d="M44.7805 24.8756V24.6231H44.8824V24.5716H44.6231V24.6231H44.7249V24.8756H44.7805ZM45.284 24.8756V24.5711H45.2045L45.1131 24.7805L45.0216 24.5711H44.9421V24.8756H44.9982V24.6459L45.0839 24.8439H45.1421L45.2279 24.6454V24.8756H45.284Z" fill="#F79E1B"/>
<rect x="9.5022" y="4.88795" width="46.8384" height="30.2545" rx="5.49062" stroke="#D6DCE5" stroke-width="0.224107"/>
</g>
<defs>
<filter id="filter0_dd_20_322" x="0.425851" y="0.293736" width="64.9911" height="48.4071" filterUnits="userSpaceOnUse" color-interpolation-filters="sRGB">
<feFlood flood-opacity="0" result="BackgroundImageFix"/>
<feColorMatrix in="SourceAlpha" type="matrix" values="0 0 0 0 0 0 0 0 0 0 0 0 0 0 0 0 0 0 127 0" result="hardAlpha"/>
<feOffset dy="0.448214"/>
<feGaussianBlur stdDeviation="2.24107"/>
<feColorMatrix type="matrix" values="0 0 0 0 0.717647 0 0 0 0 0.717647 0 0 0 0 0.717647 0 0 0 0.08 0"/>
<feBlend mode="normal" in2="BackgroundImageFix" result="effect1_dropShadow_20_322"/>
<feColorMatrix in="SourceAlpha" type="matrix" values="0 0 0 0 0 0 0 0 0 0 0 0 0 0 0 0 0 0 127 0" result="hardAlpha"/>
<feOffset dy="4.48214"/>
<feGaussianBlur stdDeviation="4.48214"/>
<feColorMatrix type="matrix" values="0 0 0 0 0.717647 0 0 0 0 0.717647 0 0 0 0 0.717647 0 0 0 0.08 0"/>
<feBlend mode="normal" in2="effect1_dropShadow_20_322" result="effect2_dropShadow_20_322"/>
<feBlend mode="normal" in="SourceGraphic" in2="effect2_dropShadow_20_322" result="shape"/>
</filter>
</defs>
</svg>
