<svg width="301" height="49" viewBox="0 0 301 49" fill="none" xmlns="http://www.w3.org/2000/svg">
<g filter="url(#filter0_dd_20_319)">
<rect x="10" y="5" width="46.6143" height="30.0304" rx="5.37857" fill="white"/>
<path d="M33.0221 15.121L30.8479 25.2845H28.2188L30.3933 15.121H33.0221ZM44.0838 21.6836L45.468 17.8669L46.2645 21.6836H44.0838ZM47.0172 25.2845H49.4491L47.327 15.121H45.0823C44.5779 15.121 44.1523 15.4144 43.9628 15.8667L40.0184 25.2845H42.7794L43.3275 23.7668H46.7007L47.0172 25.2845ZM40.1554 21.9661C40.1667 19.2836 36.4458 19.1359 36.4715 17.9376C36.4792 17.5725 36.827 17.1852 37.5865 17.0858C37.9638 17.0366 39.0012 16.999 40.1792 17.541L40.6405 15.3857C40.0078 15.1561 39.1936 14.9351 38.1809 14.9351C35.5824 14.9351 33.7533 16.3167 33.7379 18.295C33.7215 19.758 35.0436 20.5745 36.0398 21.0609C37.0641 21.5591 37.4083 21.8782 37.4038 22.3238C37.397 23.0061 36.5867 23.3065 35.8307 23.3184C34.5086 23.3393 33.7414 22.9617 33.1299 22.6767L32.6535 24.9037C33.2676 25.1858 34.4015 25.4309 35.5779 25.4435C38.3395 25.4435 40.1464 24.0789 40.1554 21.9661ZM29.2652 15.121L25.0055 25.2845H22.2258L20.1298 17.1733C20.0024 16.6738 19.8917 16.491 19.5047 16.2803C18.8733 15.9377 17.8294 15.6157 16.911 15.4163L16.9737 15.121H21.4474C22.0174 15.121 22.5305 15.5006 22.6598 16.1571L23.767 22.0388L26.5029 15.121H29.2652Z" fill="#1434CB"/>
<rect x="9.88795" y="4.88795" width="46.8384" height="30.2545" rx="5.49062" stroke="#D6DCE5" stroke-width="0.224107"/>
</g>
<g filter="url(#filter1_dd_20_319)">
<rect x="68.6143" y="5" width="46.6143" height="30.0304" rx="5.37857" fill="white"/>
<path d="M95.2699 13.8484H88.4066V26.1819H95.2699V13.8484Z" fill="#FF5F00"/>
<path d="M88.8425 20.0151C88.8414 18.8273 89.1105 17.6548 89.6296 16.5864C90.1486 15.518 90.9039 14.5817 91.8383 13.8484C90.6812 12.9389 89.2915 12.3732 87.8282 12.2162C86.3648 12.0591 84.8867 12.3169 83.563 12.9602C82.2392 13.6034 81.1231 14.6061 80.3423 15.8537C79.5614 17.1013 79.1473 18.5434 79.1473 20.0151C79.1473 21.4869 79.5614 22.929 80.3423 24.1766C81.1231 25.4241 82.2392 26.4269 83.563 27.0701C84.8867 27.7133 86.3648 27.9712 87.8282 27.8141C89.2915 27.657 90.6812 27.0914 91.8383 26.1819C90.9039 25.4485 90.1486 24.5122 89.6296 23.4438C89.1105 22.3754 88.8414 21.2029 88.8425 20.0151Z" fill="#EB001B"/>
<path d="M104.529 20.0151C104.529 21.4869 104.115 22.929 103.334 24.1765C102.553 25.4241 101.437 26.4268 100.113 27.0701C98.7897 27.7133 97.3117 27.9712 95.8484 27.8141C94.385 27.657 92.9954 27.0914 91.8383 26.1819C92.7719 25.4478 93.5266 24.5113 94.0455 23.4431C94.5645 22.3749 94.8341 21.2028 94.8341 20.0151C94.8341 18.8275 94.5645 17.6554 94.0455 16.5872C93.5266 15.5189 92.7719 14.5825 91.8383 13.8484C92.9954 12.9389 94.385 12.3732 95.8484 12.2162C97.3117 12.0591 98.7897 12.3169 100.113 12.9602C101.437 13.6034 102.553 14.6062 103.334 15.8537C104.115 17.1013 104.529 18.5434 104.529 20.0151Z" fill="#F79E1B"/>
<path d="M103.781 24.8756V24.6231H103.882V24.5716H103.623V24.6231H103.725V24.8756H103.781ZM104.284 24.8756V24.5711H104.204L104.113 24.7805L104.022 24.5711H103.942V24.8756H103.998V24.6459L104.084 24.8439H104.142L104.228 24.6454V24.8756H104.284Z" fill="#F79E1B"/>
<rect x="68.5022" y="4.88795" width="46.8384" height="30.2545" rx="5.49062" stroke="#D6DCE5" stroke-width="0.224107"/>
</g>
<g filter="url(#filter2_dd_20_319)">
<rect x="127.229" y="5" width="46.6143" height="30.0304" rx="5.37857" fill="white"/>
<path fill-rule="evenodd" clip-rule="evenodd" d="M137.426 15.646H134.738C134.554 15.646 134.398 15.7796 134.369 15.9611L133.282 22.8518C133.261 22.9879 133.366 23.1104 133.504 23.1104H134.787C134.971 23.1104 135.127 22.9768 135.156 22.7949L135.449 20.9364C135.477 20.7544 135.634 20.6209 135.818 20.6209H136.668C138.439 20.6209 139.46 19.7643 139.727 18.0669C139.848 17.3243 139.733 16.7408 139.385 16.332C139.003 15.8835 138.325 15.646 137.426 15.646ZM137.736 18.1627C137.589 19.127 136.852 19.127 136.14 19.127H135.734L136.018 17.3261C136.035 17.2174 136.13 17.1372 136.24 17.1372H136.426C136.911 17.1372 137.369 17.1372 137.605 17.4138C137.746 17.5789 137.79 17.824 137.736 18.1627ZM145.459 18.1318H144.172C144.063 18.1318 143.968 18.212 143.951 18.3209L143.894 18.6808L143.804 18.5504C143.525 18.146 142.904 18.0109 142.284 18.0109C140.862 18.0109 139.647 19.0879 139.411 20.5988C139.288 21.3523 139.462 22.0729 139.89 22.5755C140.282 23.0375 140.843 23.2301 141.511 23.2301C142.657 23.2301 143.292 22.4933 143.292 22.4933L143.235 22.8509C143.213 22.9877 143.319 23.1102 143.456 23.1102H144.615C144.8 23.1102 144.955 22.9766 144.984 22.7948L145.68 18.3904C145.702 18.2549 145.597 18.1318 145.459 18.1318ZM143.665 20.6364C143.541 21.3715 142.958 21.865 142.213 21.865C141.84 21.865 141.541 21.7452 141.349 21.5181C141.159 21.2926 141.087 20.9715 141.147 20.614C141.263 19.8851 141.857 19.3756 142.589 19.3756C142.955 19.3756 143.252 19.4968 143.448 19.726C143.644 19.9574 143.721 20.2804 143.665 20.6364ZM151.02 18.1317H152.314C152.495 18.1317 152.6 18.3348 152.497 18.4833L148.196 24.6914C148.126 24.792 148.012 24.8518 147.889 24.8518H146.597C146.415 24.8518 146.309 24.6471 146.415 24.4982L147.754 22.6078L146.329 18.4279C146.28 18.2826 146.387 18.1317 146.542 18.1317H147.813C147.978 18.1317 148.124 18.24 148.171 18.398L148.927 20.9226L150.711 18.2955C150.781 18.1929 150.897 18.1317 151.02 18.1317Z" fill="#253B80"/>
<path fill-rule="evenodd" clip-rule="evenodd" d="M165.043 22.8512L166.146 15.8345C166.163 15.7256 166.257 15.6454 166.367 15.645H167.608C167.745 15.645 167.851 15.7679 167.829 15.9039L166.741 22.7943C166.713 22.9762 166.557 23.1098 166.372 23.1098H165.264C165.126 23.1098 165.021 22.9872 165.043 22.8512ZM156.596 15.6454H153.908C153.724 15.6454 153.568 15.779 153.539 15.9605L152.452 22.8512C152.431 22.9872 152.536 23.1098 152.673 23.1098H154.052C154.181 23.1098 154.29 23.0163 154.31 22.8891L154.619 20.9358C154.647 20.7538 154.804 20.6203 154.987 20.6203H155.838C157.608 20.6203 158.63 19.7637 158.897 18.0663C159.018 17.3237 158.902 16.7402 158.554 16.3314C158.172 15.8829 157.495 15.6454 156.596 15.6454ZM156.906 18.1621C156.759 19.1264 156.022 19.1264 155.31 19.1264H154.904L155.189 17.3255C155.206 17.2168 155.3 17.1366 155.41 17.1366H155.596C156.081 17.1366 156.539 17.1366 156.776 17.4132C156.917 17.5783 156.96 17.8234 156.906 18.1621ZM164.629 18.1312H163.343C163.232 18.1312 163.138 18.2114 163.122 18.3203L163.065 18.6802L162.974 18.5498C162.696 18.1454 162.075 18.0103 161.455 18.0103C160.032 18.0103 158.818 19.0873 158.582 20.5981C158.459 21.3517 158.633 22.0723 159.061 22.5748C159.454 23.0369 160.014 23.2294 160.682 23.2294C161.828 23.2294 162.463 22.4927 162.463 22.4927L162.406 22.8503C162.384 22.9871 162.489 23.1096 162.627 23.1096H163.786C163.97 23.1096 164.126 22.976 164.155 22.7941L164.851 18.3898C164.872 18.2543 164.767 18.1312 164.629 18.1312ZM162.835 20.6358C162.711 21.3709 162.127 21.8644 161.383 21.8644C161.01 21.8644 160.71 21.7446 160.519 21.5175C160.328 21.292 160.257 20.9709 160.317 20.6134C160.433 19.8845 161.026 19.375 161.759 19.375C162.124 19.375 162.421 19.4962 162.617 19.7253C162.814 19.9568 162.892 20.2798 162.835 20.6358Z" fill="#179BD7"/>
<rect x="127.116" y="4.88795" width="46.8384" height="30.2545" rx="5.49062" stroke="#D6DCE5" stroke-width="0.224107"/>
</g>
<g filter="url(#filter3_dd_20_319)">
<rect x="185.843" y="5" width="46.6143" height="30.0304" rx="5.37857" fill="white"/>
<path d="M200.92 16.0817C201.231 15.6927 201.442 15.1704 201.386 14.6367C200.931 14.6594 200.375 14.9371 200.054 15.3264C199.765 15.6597 199.509 16.2039 199.576 16.7152C200.087 16.7595 200.598 16.4598 200.92 16.0817Z" fill="#000008"/>
<path d="M201.38 16.8151C200.638 16.7709 200.007 17.2363 199.653 17.2363C199.298 17.2363 198.756 16.8373 198.169 16.8481C197.405 16.8593 196.696 17.2913 196.308 17.9784C195.51 19.3528 196.097 21.3916 196.873 22.511C197.25 23.0648 197.703 23.6746 198.301 23.6527C198.866 23.6305 199.088 23.2868 199.775 23.2868C200.461 23.2868 200.661 23.6527 201.259 23.6416C201.879 23.6305 202.267 23.0875 202.643 22.5332C203.075 21.9019 203.252 21.2923 203.263 21.2588C203.252 21.2477 202.067 20.7932 202.056 19.4302C202.045 18.2889 202.987 17.746 203.031 17.7123C202.499 16.926 201.668 16.8373 201.38 16.8151Z" fill="#000008"/>
<path d="M207.843 15.2705C209.456 15.2705 210.579 16.3824 210.579 18.0013C210.579 19.6259 209.432 20.7435 207.802 20.7435H206.016V23.5837H204.726V15.2705L207.843 15.2705ZM206.016 19.6604H207.497C208.62 19.6604 209.26 19.0556 209.26 18.007C209.26 16.9586 208.62 16.3594 207.503 16.3594H206.016V19.6604Z" fill="#000008"/>
<path d="M210.916 21.8612C210.916 20.8011 211.728 20.1501 213.169 20.0695L214.828 19.9716V19.505C214.828 18.8309 214.373 18.4276 213.612 18.4276C212.892 18.4276 212.443 18.7732 212.333 19.3148H211.158C211.227 18.2201 212.16 17.4136 213.658 17.4136C215.127 17.4136 216.066 18.1914 216.066 19.4069V23.5837H214.874V22.5871H214.845C214.494 23.2611 213.727 23.6874 212.932 23.6874C211.746 23.6874 210.916 22.95 210.916 21.8612ZM214.828 21.3139V20.8358L213.336 20.9279C212.592 20.9798 212.172 21.3081 212.172 21.8266C212.172 22.3566 212.61 22.7023 213.278 22.7023C214.148 22.7023 214.828 22.1031 214.828 21.3139Z" fill="#000008"/>
<path d="M217.192 25.8133V24.8051C217.284 24.8281 217.492 24.8281 217.595 24.8281C218.171 24.8281 218.483 24.5861 218.673 23.964C218.673 23.9524 218.782 23.5953 218.782 23.5895L216.593 17.5231H217.941L219.473 22.4546H219.496L221.029 17.5231H222.342L220.072 23.9005C219.554 25.3697 218.955 25.8421 217.699 25.8421C217.595 25.8421 217.284 25.8305 217.192 25.8133Z" fill="#000008"/>
<rect x="185.731" y="4.88795" width="46.8384" height="30.2545" rx="5.49062" stroke="#D6DCE5" stroke-width="0.224107"/>
</g>
<g filter="url(#filter4_dd_20_319)">
<rect x="244.457" y="5" width="46.6143" height="30.0304" rx="5.37857" fill="white"/>
<path d="M266.751 23.6143H265.703V15.4561H268.482C269.186 15.4561 269.787 15.6909 270.279 16.1605C270.781 16.6301 271.032 17.2035 271.032 17.8806C271.032 18.5741 270.781 19.1475 270.279 19.6116C269.793 20.0758 269.192 20.3051 268.482 20.3051H266.751V23.6143ZM266.751 16.4608V19.3058H268.504C268.919 19.3058 269.268 19.1639 269.541 18.8854C269.82 18.6069 269.962 18.2683 269.962 17.8861C269.962 17.5093 269.82 17.1762 269.541 16.8977C269.268 16.6083 268.924 16.4663 268.504 16.4663H266.751V16.4608Z" fill="#3C4043"/>
<path d="M273.773 17.8478C274.549 17.8478 275.16 18.0553 275.608 18.4703C276.056 18.8854 276.28 19.4533 276.28 20.1741V23.6143H275.28V22.8389H275.237C274.805 23.4778 274.226 23.7945 273.506 23.7945C272.889 23.7945 272.375 23.6143 271.96 23.2484C271.545 22.8826 271.338 22.4293 271.338 21.8833C271.338 21.3044 271.556 20.8457 271.993 20.5072C272.43 20.1632 273.014 19.9939 273.74 19.9939C274.363 19.9939 274.876 20.1085 275.275 20.3379V20.0976C275.275 19.7318 275.133 19.426 274.844 19.1693C274.554 18.9127 274.216 18.7871 273.828 18.7871C273.244 18.7871 272.779 19.0328 272.441 19.5297L271.518 18.9509C272.026 18.2137 272.779 17.8478 273.773 17.8478ZM272.419 21.8996C272.419 22.1727 272.534 22.402 272.768 22.5822C272.998 22.7624 273.271 22.8553 273.582 22.8553C274.024 22.8553 274.418 22.6914 274.762 22.3638C275.106 22.0362 275.28 21.6539 275.28 21.2116C274.953 20.955 274.5 20.8239 273.915 20.8239C273.489 20.8239 273.134 20.9276 272.85 21.1297C272.561 21.3427 272.419 21.5993 272.419 21.8996Z" fill="#3C4043"/>
<path d="M281.981 18.0281L278.486 26.0662H277.405L278.704 23.2539L276.4 18.0281H277.541L279.201 22.0362H279.223L280.839 18.0281H281.981Z" fill="#3C4043"/>
<path d="M262.581 19.6444C262.581 19.3026 262.55 18.9755 262.493 18.6609H258.098V20.4629L260.63 20.4635C260.527 21.0631 260.196 21.5742 259.69 21.9149V23.0841H261.197C262.077 22.2699 262.581 21.0664 262.581 19.6444Z" fill="#4285F4"/>
<path d="M259.691 21.915C259.271 22.1979 258.731 22.3633 258.1 22.3633C256.879 22.3633 255.844 21.5409 255.473 20.4324H253.919V21.6381C254.689 23.166 256.271 24.2145 258.1 24.2145C259.363 24.2145 260.425 23.7989 261.197 23.0836L259.691 21.915Z" fill="#34A853"/>
<path d="M255.327 19.5379C255.327 19.2266 255.378 18.9258 255.473 18.6429V17.4372H253.919C253.6 18.069 253.421 18.7821 253.421 19.5379C253.421 20.2937 253.601 21.0068 253.919 21.6386L255.473 20.4329C255.378 20.15 255.327 19.8492 255.327 19.5379Z" fill="#FABB05"/>
<path d="M258.1 16.712C258.789 16.712 259.407 16.9495 259.894 17.4137L261.23 16.0797C260.419 15.3245 259.362 14.8608 258.1 14.8608C256.272 14.8608 254.689 15.9093 253.919 17.4372L255.473 18.6429C255.844 17.5344 256.879 16.712 258.1 16.712Z" fill="#E94235"/>
<rect x="244.345" y="4.88795" width="46.8384" height="30.2545" rx="5.49062" stroke="#D6DCE5" stroke-width="0.224107"/>
</g>
<defs>
<filter id="filter0_dd_20_319" x="0.811593" y="0.293736" width="64.9911" height="48.4071" filterUnits="userSpaceOnUse" color-interpolation-filters="sRGB">
<feFlood flood-opacity="0" result="BackgroundImageFix"/>
<feColorMatrix in="SourceAlpha" type="matrix" values="0 0 0 0 0 0 0 0 0 0 0 0 0 0 0 0 0 0 127 0" result="hardAlpha"/>
<feOffset dy="0.448214"/>
<feGaussianBlur stdDeviation="2.24107"/>
<feColorMatrix type="matrix" values="0 0 0 0 0.717647 0 0 0 0 0.717647 0 0 0 0 0.717647 0 0 0 0.08 0"/>
<feBlend mode="normal" in2="BackgroundImageFix" result="effect1_dropShadow_20_319"/>
<feColorMatrix in="SourceAlpha" type="matrix" values="0 0 0 0 0 0 0 0 0 0 0 0 0 0 0 0 0 0 127 0" result="hardAlpha"/>
<feOffset dy="4.48214"/>
<feGaussianBlur stdDeviation="4.48214"/>
<feColorMatrix type="matrix" values="0 0 0 0 0.717647 0 0 0 0 0.717647 0 0 0 0 0.717647 0 0 0 0.08 0"/>
<feBlend mode="normal" in2="effect1_dropShadow_20_319" result="effect2_dropShadow_20_319"/>
<feBlend mode="normal" in="SourceGraphic" in2="effect2_dropShadow_20_319" result="shape"/>
</filter>
<filter id="filter1_dd_20_319" x="59.4259" y="0.293736" width="64.9911" height="48.4071" filterUnits="userSpaceOnUse" color-interpolation-filters="sRGB">
<feFlood flood-opacity="0" result="BackgroundImageFix"/>
<feColorMatrix in="SourceAlpha" type="matrix" values="0 0 0 0 0 0 0 0 0 0 0 0 0 0 0 0 0 0 127 0" result="hardAlpha"/>
<feOffset dy="0.448214"/>
<feGaussianBlur stdDeviation="2.24107"/>
<feColorMatrix type="matrix" values="0 0 0 0 0.717647 0 0 0 0 0.717647 0 0 0 0 0.717647 0 0 0 0.08 0"/>
<feBlend mode="normal" in2="BackgroundImageFix" result="effect1_dropShadow_20_319"/>
<feColorMatrix in="SourceAlpha" type="matrix" values="0 0 0 0 0 0 0 0 0 0 0 0 0 0 0 0 0 0 127 0" result="hardAlpha"/>
<feOffset dy="4.48214"/>
<feGaussianBlur stdDeviation="4.48214"/>
<feColorMatrix type="matrix" values="0 0 0 0 0.717647 0 0 0 0 0.717647 0 0 0 0 0.717647 0 0 0 0.08 0"/>
<feBlend mode="normal" in2="effect1_dropShadow_20_319" result="effect2_dropShadow_20_319"/>
<feBlend mode="normal" in="SourceGraphic" in2="effect2_dropShadow_20_319" result="shape"/>
</filter>
<filter id="filter2_dd_20_319" x="118.04" y="0.293736" width="64.9911" height="48.4071" filterUnits="userSpaceOnUse" color-interpolation-filters="sRGB">
<feFlood flood-opacity="0" result="BackgroundImageFix"/>
<feColorMatrix in="SourceAlpha" type="matrix" values="0 0 0 0 0 0 0 0 0 0 0 0 0 0 0 0 0 0 127 0" result="hardAlpha"/>
<feOffset dy="0.448214"/>
<feGaussianBlur stdDeviation="2.24107"/>
<feColorMatrix type="matrix" values="0 0 0 0 0.717647 0 0 0 0 0.717647 0 0 0 0 0.717647 0 0 0 0.08 0"/>
<feBlend mode="normal" in2="BackgroundImageFix" result="effect1_dropShadow_20_319"/>
<feColorMatrix in="SourceAlpha" type="matrix" values="0 0 0 0 0 0 0 0 0 0 0 0 0 0 0 0 0 0 127 0" result="hardAlpha"/>
<feOffset dy="4.48214"/>
<feGaussianBlur stdDeviation="4.48214"/>
<feColorMatrix type="matrix" values="0 0 0 0 0.717647 0 0 0 0 0.717647 0 0 0 0 0.717647 0 0 0 0.08 0"/>
<feBlend mode="normal" in2="effect1_dropShadow_20_319" result="effect2_dropShadow_20_319"/>
<feBlend mode="normal" in="SourceGraphic" in2="effect2_dropShadow_20_319" result="shape"/>
</filter>
<filter id="filter3_dd_20_319" x="176.654" y="0.293736" width="64.9911" height="48.4071" filterUnits="userSpaceOnUse" color-interpolation-filters="sRGB">
<feFlood flood-opacity="0" result="BackgroundImageFix"/>
<feColorMatrix in="SourceAlpha" type="matrix" values="0 0 0 0 0 0 0 0 0 0 0 0 0 0 0 0 0 0 127 0" result="hardAlpha"/>
<feOffset dy="0.448214"/>
<feGaussianBlur stdDeviation="2.24107"/>
<feColorMatrix type="matrix" values="0 0 0 0 0.717647 0 0 0 0 0.717647 0 0 0 0 0.717647 0 0 0 0.08 0"/>
<feBlend mode="normal" in2="BackgroundImageFix" result="effect1_dropShadow_20_319"/>
<feColorMatrix in="SourceAlpha" type="matrix" values="0 0 0 0 0 0 0 0 0 0 0 0 0 0 0 0 0 0 127 0" result="hardAlpha"/>
<feOffset dy="4.48214"/>
<feGaussianBlur stdDeviation="4.48214"/>
<feColorMatrix type="matrix" values="0 0 0 0 0.717647 0 0 0 0 0.717647 0 0 0 0 0.717647 0 0 0 0.08 0"/>
<feBlend mode="normal" in2="effect1_dropShadow_20_319" result="effect2_dropShadow_20_319"/>
<feBlend mode="normal" in="SourceGraphic" in2="effect2_dropShadow_20_319" result="shape"/>
</filter>
<filter id="filter4_dd_20_319" x="235.269" y="0.293736" width="64.9911" height="48.4071" filterUnits="userSpaceOnUse" color-interpolation-filters="sRGB">
<feFlood flood-opacity="0" result="BackgroundImageFix"/>
<feColorMatrix in="SourceAlpha" type="matrix" values="0 0 0 0 0 0 0 0 0 0 0 0 0 0 0 0 0 0 127 0" result="hardAlpha"/>
<feOffset dy="0.448214"/>
<feGaussianBlur stdDeviation="2.24107"/>
<feColorMatrix type="matrix" values="0 0 0 0 0.717647 0 0 0 0 0.717647 0 0 0 0 0.717647 0 0 0 0.08 0"/>
<feBlend mode="normal" in2="BackgroundImageFix" result="effect1_dropShadow_20_319"/>
<feColorMatrix in="SourceAlpha" type="matrix" values="0 0 0 0 0 0 0 0 0 0 0 0 0 0 0 0 0 0 127 0" result="hardAlpha"/>
<feOffset dy="4.48214"/>
<feGaussianBlur stdDeviation="4.48214"/>
<feColorMatrix type="matrix" values="0 0 0 0 0.717647 0 0 0 0 0.717647 0 0 0 0 0.717647 0 0 0 0.08 0"/>
<feBlend mode="normal" in2="effect1_dropShadow_20_319" result="effect2_dropShadow_20_319"/>
<feBlend mode="normal" in="SourceGraphic" in2="effect2_dropShadow_20_319" result="shape"/>
</filter>
</defs>
</svg>
