<svg width="195" height="32" viewBox="0 0 195 32" fill="none" xmlns="http://www.w3.org/2000/svg">
<path fill-rule="evenodd" clip-rule="evenodd" d="M0.481689 0.90175L3.41386 4.20848V28.4106L1.24066 31.5774L14.5501 31.5978L12.1512 28.6839L11.9021 19.9679L24.7353 20.0375C28.6251 18.7425 32.6238 15.9815 32.8159 10.3996C32.7545 4.99032 29.452 1.52086 25.6177 0.830605L0.481689 0.90175ZM11.4265 2.44953V17.9977L21.2728 18.0689C23.5131 16.2623 25.2115 14.8787 25.1436 10.5411C25.1115 7.00433 24.3649 3.92011 21.0689 2.45029L11.4265 2.44953ZM38.9753 0.725402L41.9075 4.03289V28.2351L39.7343 31.4033L53.043 31.4222L50.6441 28.5083L50.395 19.7923H50.4483L64.1982 31.5206L75.6091 31.4275L65.1946 22.4193H56.5004L53.436 19.8089L63.2282 19.8619C67.118 18.5669 71.1159 15.8059 71.3088 10.224C71.2482 4.81548 67.9456 1.34527 64.1106 0.65577L38.9753 0.725402ZM49.9194 2.27318V17.8214L59.7657 17.8925C62.0068 16.0859 63.7044 14.7024 63.6365 10.364C63.6044 6.82798 62.8578 3.74301 59.5619 2.27318H49.9194ZM86.5949 0.690586H98.0708L113.009 28.4106C113.656 30.551 115.589 30.2869 116.88 31.2254H102.416L104.59 30.5457L104.454 28.4818L100.719 22.5011L88.0208 22.5722L85.3049 28.3418C85.2143 28.998 84.5123 29.496 85.0331 30.3111L86.0522 31.2958L79.805 31.155L82.5217 30.3111L92.7741 8.71181V7.23365L88.4423 1.45502L86.5949 0.690586ZM88.8236 20.5976L94.0977 10.6123L99.5888 20.5416L88.8236 20.5976ZM164.197 0.751135H175.672L190.611 28.4712C191.257 30.6116 193.191 30.3475 194.482 31.286H180.017L182.191 30.6048L182.055 28.5408L178.32 22.5616L165.622 22.6328L162.906 28.4008C162.815 29.0585 162.114 29.5565 162.634 30.3717L163.653 31.3563L157.407 31.2156L160.123 30.3717L170.376 8.77235V7.29345L166.044 1.51557L164.197 0.751135ZM166.425 20.6589L171.699 10.6736L177.191 20.6013L166.425 20.6589ZM120.849 0.402222L141.292 0.514994C147.875 2.05672 152.064 6.07868 153.363 13.0948L153.308 18.5669C152.108 24.8186 148.175 29.1319 141.238 31.3155L120.74 31.373L120.737 30.7107C123.853 30.4754 124.102 30.1196 124.11 28.2699V3.33506C124.075 1.96741 123.802 1.11594 120.794 1.02209L120.849 0.402222ZM132.469 2.53581L132.45 29.5134C135.146 29.5225 137.485 29.7753 138.806 29.1009C141.801 27.7333 143.191 25.633 143.319 23.6598L143.247 7.73016C143.248 5.1818 140.482 3.38274 138.885 2.91425C137.743 2.49116 135.465 2.47375 132.469 2.53581Z" fill="white" stroke="white" stroke-width="1.02419" stroke-miterlimit="2.613"/>
</svg>
