<svg width="23" height="22" viewBox="0 0 23 22" fill="none" xmlns="http://www.w3.org/2000/svg">
<path d="M9.375 19.25C9.375 19.6208 9.26503 19.9834 9.059 20.2917C8.85298 20.6 8.56014 20.8404 8.21753 20.9823C7.87492 21.1242 7.49792 21.1613 7.1342 21.089C6.77049 21.0166 6.4364 20.838 6.17417 20.5758C5.91195 20.3136 5.73337 19.9795 5.66103 19.6158C5.58868 19.2521 5.62581 18.8751 5.76773 18.5325C5.90964 18.1899 6.14996 17.897 6.45831 17.691C6.76665 17.485 7.12916 17.375 7.5 17.375C7.99728 17.375 8.47419 17.5725 8.82582 17.9242C9.17745 18.2758 9.375 18.7527 9.375 19.25ZM17.25 17.375C16.8792 17.375 16.5166 17.485 16.2083 17.691C15.9 17.897 15.6596 18.1899 15.5177 18.5325C15.3758 18.8751 15.3387 19.2521 15.411 19.6158C15.4834 19.9795 15.662 20.3136 15.9242 20.5758C16.1864 20.838 16.5205 21.0166 16.8842 21.089C17.2479 21.1613 17.6249 21.1242 17.9675 20.9823C18.3101 20.8404 18.603 20.6 18.809 20.2917C19.015 19.9834 19.125 19.6208 19.125 19.25C19.125 18.7527 18.9275 18.2758 18.5758 17.9242C18.2242 17.5725 17.7473 17.375 17.25 17.375ZM22.0753 6.08094L19.5169 14.3966C19.3535 14.9343 19.0211 15.4051 18.569 15.739C18.1169 16.0729 17.5692 16.2521 17.0072 16.25H7.77469C7.2046 16.2482 6.65046 16.0616 6.1953 15.7183C5.74015 15.3751 5.40848 14.8936 5.25 14.3459L2.04469 3.125H1.125C0.826631 3.125 0.540483 3.00647 0.329505 2.7955C0.118526 2.58452 0 2.29837 0 2C0 1.70163 0.118526 1.41548 0.329505 1.2045C0.540483 0.993526 0.826631 0.875 1.125 0.875H2.32687C2.73407 0.876258 3.12988 1.00951 3.45493 1.25478C3.77998 1.50004 4.01674 1.84409 4.12969 2.23531L4.81312 4.625H21C21.1761 4.62499 21.3497 4.6663 21.5069 4.74561C21.664 4.82492 21.8004 4.94001 21.905 5.08164C22.0096 5.22326 22.0795 5.38746 22.1091 5.56102C22.1387 5.73458 22.1271 5.91266 22.0753 6.08094ZM19.4766 6.875H5.45531L7.41375 13.7281C7.43617 13.8065 7.48354 13.8755 7.54867 13.9245C7.6138 13.9736 7.69315 14.0001 7.77469 14H17.0072C17.0875 14.0002 17.1656 13.9746 17.2303 13.927C17.2949 13.8794 17.3426 13.8123 17.3662 13.7356L19.4766 6.875Z" fill="black"/>
</svg>
