<svg width="81" height="19" viewBox="0 0 81 19" fill="none" xmlns="http://www.w3.org/2000/svg">
<path d="M9.24494 0.255005L11.8641 5.89491L18.0374 6.6431L13.4829 10.8769L14.679 16.9793L9.24494 13.956L3.8109 16.9793L5.00697 10.8769L0.452479 6.6431L6.62573 5.89491L9.24494 0.255005Z" fill="#FFC633"/>
<path d="M33.0468 0.255005L35.666 5.89491L41.8393 6.6431L37.2848 10.8769L38.4809 16.9793L33.0468 13.956L27.6128 16.9793L28.8089 10.8769L24.2544 6.6431L30.4276 5.89491L33.0468 0.255005Z" fill="#FFC633"/>
<path d="M56.8487 0.255005L59.4679 5.89491L65.6412 6.6431L61.0867 10.8769L62.2827 16.9793L56.8487 13.956L51.4147 16.9793L52.6107 10.8769L48.0562 6.6431L54.2295 5.89491L56.8487 0.255005Z" fill="#FFC633"/>
<path d="M74.7641 16.9793L80.1981 13.956V0.255005L77.5789 5.89491L71.4056 6.6431L75.9601 10.8769L74.7641 16.9793Z" fill="#FFC633"/>
</svg>
