<svg width="28" height="28" viewBox="0 0 28 28" fill="none" xmlns="http://www.w3.org/2000/svg">
<circle cx="14" cy="14" r="14" fill="white"/>
<circle cx="14" cy="14" r="13.5" stroke="black" stroke-opacity="0.2"/>
<path d="M20.2071 10.9831C19.7881 11.1693 19.3458 11.2857 18.8802 11.3556C19.3458 11.0762 19.7183 10.6339 19.8812 10.0985C19.4389 10.3546 18.9501 10.5408 18.4146 10.6572C17.9956 10.2149 17.3904 9.93555 16.7386 9.93555C15.4815 9.93555 14.4572 10.9598 14.4572 12.2169C14.4572 12.4031 14.4805 12.5661 14.5271 12.729C12.6415 12.6359 10.9421 11.728 9.80141 10.3313C9.61518 10.6805 9.49878 11.0529 9.49878 11.472C9.49878 12.2634 9.89453 12.9618 10.5231 13.3808C10.1506 13.3576 9.80141 13.2644 9.4755 13.1015V13.1248C9.4755 14.2422 10.267 15.1733 11.3145 15.3828C11.1283 15.4294 10.9188 15.4527 10.7093 15.4527C10.5696 15.4527 10.4067 15.4294 10.267 15.4061C10.5696 16.314 11.4077 16.9891 12.4087 16.9891C11.6172 17.5943 10.6395 17.9668 9.56862 17.9668C9.38239 17.9668 9.19616 17.9668 9.0332 17.9435C10.0575 18.5953 11.2447 18.9678 12.5483 18.9678C16.7618 18.9678 19.0665 15.476 19.0665 12.4497C19.0665 12.3566 19.0665 12.2402 19.0665 12.1471C19.5088 11.8444 19.9045 11.4487 20.2071 10.9831Z" fill="black"/>
</svg>
