<svg width="66" height="49" viewBox="0 0 66 49" fill="none" xmlns="http://www.w3.org/2000/svg">
<g filter="url(#filter0_dd_20_320)">
<rect x="10" y="5" width="46.6143" height="30.0304" rx="5.37857" fill="white"/>
<path d="M33.0221 15.121L30.8479 25.2845H28.2188L30.3933 15.121H33.0221ZM44.0838 21.6836L45.468 17.8669L46.2645 21.6836H44.0838ZM47.0172 25.2845H49.4491L47.327 15.121H45.0823C44.5779 15.121 44.1523 15.4144 43.9628 15.8667L40.0184 25.2845H42.7794L43.3275 23.7668H46.7007L47.0172 25.2845ZM40.1554 21.9661C40.1667 19.2836 36.4458 19.1359 36.4715 17.9376C36.4792 17.5725 36.827 17.1852 37.5865 17.0858C37.9638 17.0366 39.0012 16.999 40.1792 17.541L40.6405 15.3857C40.0078 15.1561 39.1936 14.9351 38.1809 14.9351C35.5824 14.9351 33.7533 16.3167 33.7379 18.295C33.7215 19.758 35.0436 20.5745 36.0398 21.0609C37.0641 21.5591 37.4083 21.8782 37.4038 22.3238C37.397 23.0061 36.5867 23.3065 35.8307 23.3184C34.5086 23.3393 33.7414 22.9617 33.1299 22.6767L32.6535 24.9037C33.2676 25.1858 34.4015 25.4309 35.5779 25.4435C38.3395 25.4435 40.1464 24.0789 40.1554 21.9661ZM29.2652 15.121L25.0055 25.2845H22.2258L20.1298 17.1733C20.0024 16.6738 19.8917 16.491 19.5047 16.2803C18.8733 15.9377 17.8294 15.6157 16.911 15.4163L16.9737 15.121H21.4474C22.0174 15.121 22.5305 15.5006 22.6598 16.1571L23.767 22.0388L26.5029 15.121H29.2652Z" fill="#1434CB"/>
<rect x="9.88795" y="4.88795" width="46.8384" height="30.2545" rx="5.49062" stroke="#D6DCE5" stroke-width="0.224107"/>
</g>
<defs>
<filter id="filter0_dd_20_320" x="0.811593" y="0.293736" width="64.9911" height="48.4071" filterUnits="userSpaceOnUse" color-interpolation-filters="sRGB">
<feFlood flood-opacity="0" result="BackgroundImageFix"/>
<feColorMatrix in="SourceAlpha" type="matrix" values="0 0 0 0 0 0 0 0 0 0 0 0 0 0 0 0 0 0 127 0" result="hardAlpha"/>
<feOffset dy="0.448214"/>
<feGaussianBlur stdDeviation="2.24107"/>
<feColorMatrix type="matrix" values="0 0 0 0 0.717647 0 0 0 0 0.717647 0 0 0 0 0.717647 0 0 0 0.08 0"/>
<feBlend mode="normal" in2="BackgroundImageFix" result="effect1_dropShadow_20_320"/>
<feColorMatrix in="SourceAlpha" type="matrix" values="0 0 0 0 0 0 0 0 0 0 0 0 0 0 0 0 0 0 127 0" result="hardAlpha"/>
<feOffset dy="4.48214"/>
<feGaussianBlur stdDeviation="4.48214"/>
<feColorMatrix type="matrix" values="0 0 0 0 0.717647 0 0 0 0 0.717647 0 0 0 0 0.717647 0 0 0 0.08 0"/>
<feBlend mode="normal" in2="effect1_dropShadow_20_320" result="effect2_dropShadow_20_320"/>
<feBlend mode="normal" in="SourceGraphic" in2="effect2_dropShadow_20_320" result="shape"/>
</filter>
</defs>
</svg>
